<?xml version="1.0" encoding="UTF-8" standalone="no"?>
<!DOCTYPE svg PUBLIC "-//W3C//DTD SVG 1.1//EN" "http://www.w3.org/Graphics/SVG/1.1/DTD/svg11.dtd">
<svg width="100%" height="100%" viewBox="0 0 256 256" version="1.1" xmlns="http://www.w3.org/2000/svg" xmlns:xlink="http://www.w3.org/1999/xlink" xml:space="preserve" xmlns:serif="http://www.serif.com/" style="fill-rule:evenodd;clip-rule:evenodd;stroke-linejoin:round;stroke-miterlimit:2;">
    <path d="M29.402,35.705C26.84,37.144 23.886,37.965 20.742,37.965C10.96,37.965 3.019,30.023 3.019,20.242C3.019,10.46 10.96,2.519 20.742,2.519C30.523,2.519 38.465,10.46 38.465,20.242C38.465,23.386 37.644,26.34 36.205,28.902L50.642,43.339L206.358,43.339L220.795,28.902C219.356,26.34 218.535,23.386 218.535,20.242C218.535,10.46 226.477,2.519 236.258,2.519C246.04,2.519 253.981,10.46 253.981,20.242C253.981,30.023 246.04,37.965 236.258,37.965C233.114,37.965 230.16,37.144 227.598,35.705L212.604,50.7L212.604,205.3L227.598,220.295C230.16,218.856 233.114,218.035 236.258,218.035C246.04,218.035 253.981,225.977 253.981,235.758C253.981,245.54 246.04,253.481 236.258,253.481C226.477,253.481 218.535,245.54 218.535,235.758C218.535,232.614 219.356,229.66 220.795,227.098L206.358,212.661L50.642,212.661L36.205,227.098C37.644,229.66 38.465,232.614 38.465,235.758C38.465,245.54 30.523,253.481 20.742,253.481C10.96,253.481 3.019,245.54 3.019,235.758C3.019,225.977 10.96,218.035 20.742,218.035C23.886,218.035 26.84,218.856 29.402,220.295L43.281,206.416L43.281,49.584L29.402,35.705ZM206.62,48.672L50.38,48.672L48.614,50.437L48.614,205.563L50.38,207.328L206.62,207.328L207.27,206.678L207.27,49.322L206.62,48.672Z"/>
</svg>
